<svg xmlns="http://www.w3.org/2000/svg" viewBox="0 0 512 512" role="img" aria-label="Scriptorium icon">
  <defs>
    <linearGradient id="paper" x1="106" y1="80" x2="406" y2="432" gradientUnits="userSpaceOnUse">
      <stop offset="0" stop-color="#fff7dc"/>
      <stop offset="1" stop-color="#d9c59a"/>
    </linearGradient>
    <linearGradient id="ink" x1="128" y1="110" x2="394" y2="406" gradientUnits="userSpaceOnUse">
      <stop offset="0" stop-color="#293842"/>
      <stop offset="1" stop-color="#11191f"/>
    </linearGradient>
    <linearGradient id="accent" x1="140" y1="390" x2="376" y2="126" gradientUnits="userSpaceOnUse">
      <stop offset="0" stop-color="#79c7c7"/>
      <stop offset=".52" stop-color="#7aa0d8"/>
      <stop offset="1" stop-color="#e4b85f"/>
    </linearGradient>
    <filter id="shadow" x="-20%" y="-20%" width="140%" height="140%" color-interpolation-filters="sRGB">
      <feDropShadow dx="0" dy="18" stdDeviation="22" flood-color="#000000" flood-opacity=".28"/>
    </filter>
  </defs>
  <rect width="512" height="512" rx="116" fill="#202a31"/>
  <path d="M112 148c0-24 20-44 44-44h200c24 0 44 20 44 44v216c0 24-20 44-44 44H156c-24 0-44-20-44-44V148Z" fill="#0f171d" opacity=".55" filter="url(#shadow)"/>
  <path d="M128 132c0-22 18-40 40-40h176c22 0 40 18 40 40v236c0 22-18 40-40 40H168c-22 0-40-18-40-40V132Z" fill="url(#paper)"/>
  <path d="M166 154h180M166 198h142M166 242h180M166 286h118M166 330h156" stroke="#7d6b4f" stroke-width="14" stroke-linecap="round" opacity=".62"/>
  <path d="M236 378c32-90 79-159 142-207" fill="none" stroke="url(#ink)" stroke-width="32" stroke-linecap="round"/>
  <path d="M236 378c32-90 79-159 142-207" fill="none" stroke="url(#accent)" stroke-width="18" stroke-linecap="round"/>
  <path d="M332 166c22-28 56-44 94-44-3 39-19 73-48 95-23 18-50 27-77 26 3-29 13-55 31-77Z" fill="url(#accent)"/>
  <path d="M291 357l-54 54c-8 8-22 8-30 0s-8-22 0-30l54-54 30 30Z" fill="#202a31"/>
  <path d="M237 411l-48 17 18-47 30 30Z" fill="#fff1c7"/>
  <circle cx="256" cy="256" r="178" fill="none" stroke="#f7e7bd" stroke-width="10" opacity=".18"/>
</svg>
